<?xml version="1.0" encoding="utf-8"?>
<!-- Generator: Adobe Illustrator 21.1.0, SVG Export Plug-In . SVG Version: 6.00 Build 0)  -->
<svg version="1.1" id="Layer_1" xmlns="http://www.w3.org/2000/svg" xmlns:xlink="http://www.w3.org/1999/xlink" x="0px" y="0px" viewBox="0 0 352 980" style="enable-background:new 0 0 352 980;" xml:space="preserve">
	<g transform="translate(0.000000,980.000000) scale(0.100000,-0.100000)" fill="#ffffff">
		<path d="M2103,9775c-80-48-105-151-58-239c22-42,25-59,25-159c0-399-134-870-367-1292c-36-66-85-150-109-187
		c-68-105-119-215-153-323c-43-142-54-213-54-350c0-165,22-268,91-418c19-42,33-80,30-83c-12-11-80,16-121,47c-23,18-60,54-82,81
		c-55,67-109,98-171,98c-65,0-109-28-176-112c-180-225-277-551-248-831c18-184,78-363,172-517l46-75l-26-14c-45-24-144-9-262,38
		c-181,73-240,52-337-120c-29-52-75-146-102-209c-322-762-253-1472,197-2031c89-110,283-294,405-383c91-67,107-83,102-100
		c-41-142-95-464-121-736c-24-240-24-720,0-960c26-275,74-556,125-746c24-89,82-144,159-152c65-6,114,11,151,53c44,51,57,103,42,168
		c-81,340-121,643-136,1027c-14,346,31,835,107,1166l21,91l97,6c128,8,320,47,451,92c508,176,906,542,1183,1088
		c70,137,148,322,160,380c17,75-50,175-133,197c-34,9-52,8-90-3l-48-14l62,81c142,184,264,399,324,569c96,274,217,921,247,1323
		c6,78,4,96-14,136c-48,109-189,140-281,62l-29-24l34,87c107,271,221,671,263,923c90,540,21,1034-187,1349c-112,168-204,256-466,446
		c-242,176-326,266-405,437c-59,127-102,158-214,158C2159,9800,2136,9794,2103,9775z M2785,8786c202-160,317-380,360-686
		c27-199,16-453-31-695c-91-465-322-1074-616-1619c-82-152-92-177-92-222c0-100,79-174,187-174c107,0,256,65,387,169
		c41,33,76,58,78,57c5-6-69-348-104-474c-99-363-356-712-875-1187c-52-48-68-69-77-105c-25-101,33-198,133-220c50-11,160,8,325,55
		c68,19,124,34,126,32c6-6-134-207-198-283c-231-277-553-475-873-537c-105-21-165-30-165-25c0,22,114,328,220,593
		c291,725,452,1157,621,1665c338,1015,513,1821,560,2575c23,372-8,888-68,1134C2675,8871,2685,8866,2785,8786z M2377,8475
		c22-175,24-670,5-885c-77-839-303-1745-737-2939c-91-253-186-500-395-1026c-98-247-190-488-205-535s-31-89-35-93
		c-19-21-276,223-372,353c-190,256-278,526-278,848c1,258,67,548,184,804l35,77l53-15c290-79,531,8,643,231c25,50,29,72,30,135v75
		l-69,100c-126,182-168,309-168,500c0,130,20,229,66,331l25,54l50-34c102-69,234-101,351-85c142,19,324,145,365,252
		c26,70,15,118-49,210c-95,136-130,246-129,402c1,179,34,275,168,500c175,292,284,528,370,795c26,80,49,152,52,160
		C2345,8709,2356,8649,2377,8475z" />
	</g>
</svg>
